 <svg  version="1.0" xmlns="http://www.w3.org/2000/svg"  width="375.000000pt" height="375.000000pt" viewBox="0 0 375.000000 375.000000"  preserveAspectRatio="xMidYMid meet">  <g transform="translate(0.000000,375.000000) scale(0.050000,-0.050000)" fill="#ffffff" stroke="none"> <path d="M3340 6180 c-1965 -347 -2735 -2730 -1343 -4157 1270 -1302 3490 -797 4080 929 603 1760 -915 3550 -2737 3228z m787 -162 c1532 -201 2411 -2047 1620 -3407 -1191 -2050 -4300 -1201 -4290 1171 6 1408 1220 2425 2670 2236z"/> <path d="M3387 5346 c-8 -20 -31 -81 -53 -136 -21 -55 -180 -469 -354 -920 -173 -451 -321 -836 -329 -855 -11 -25 -6 -35 15 -35 19 0 50 53 85 145 30 80 83 215 117 301 l62 155 398 3 398 4 112 -304 112 -304 215 0 c118 0 215 5 215 11 0 6 -35 99 -78 205 -43 107 -213 545 -376 974 l-299 780 -114 6 c-94 5 -116 0 -126 -30z m153 -830 c88 -239 160 -441 160 -450 0 -9 -169 -13 -376 -10 l-377 6 186 494 c102 272 187 499 188 504 4 23 68 -137 219 -544z"/> <path d="M3594 3840 c-224 -86 -344 -246 -344 -460 0 -232 149 -403 533 -610 441 -238 566 -407 470 -637 -108 -257 -594 -285 -959 -54 -109 70 -114 71 -114 33 0 -35 237 -159 380 -199 663 -183 1227 235 993 737 -75 160 -218 275 -594 476 -393 211 -492 409 -306 614 99 110 75 151 -59 100z"/> <path d="M4300 3816 c1 -25 170 -138 210 -139 57 -1 17 44 -89 101 -80 42 -121 55 -121 38z"/> </g> </svg> 